<svg xmlns="http://www.w3.org/2000/svg" viewBox="0 0 100 100" fill="none" shape-rendering="auto" aria-hidden="true" width="200" height="200"><metadata xmlns:rdf="http://www.w3.org/1999/02/22-rdf-syntax-ns#" xmlns:xsi="http://www.w3.org/2001/XMLSchema-instance" xmlns:dc="http://purl.org/dc/elements/1.1/" xmlns:dcterms="http://purl.org/dc/terms/"><rdf:RDF><rdf:Description><dc:title>Thumbs</dc:title><dc:creator>DiceBear</dc:creator><dc:source xsi:type="dcterms:URI">https://www.dicebear.com</dc:source><dcterms:license xsi:type="dcterms:URI">https://creativecommons.org/publicdomain/zero/1.0/</dcterms:license><dc:rights>“Thumbs” (https://www.dicebear.com) by “DiceBear”, licensed under “CC0 1.0” (https://creativecommons.org/publicdomain/zero/1.0/)</dc:rights></rdf:Description></rdf:RDF></metadata><defs><g id="eyes-variant08-9f26915c"><path d="M16 8c0 1.66-1.12 3-2.5 3S11 9.66 11 8s1.12-3 2.5-3S16 6.34 16 8" fill="#000000"/></g><g id="mouth-variant02-9f26915c"><path d="M15 14C1.9 14-.72 1.29.15.23S6.27 2.11 15 2.11 28.97-.83 29.85.23 28.1 14 15 14" fill="#000000"/></g><g id="head-default-9f26915c"><use transform="translate(0.63186, -1.04843)" href="#eyes-variant08-9f26915c"/><use transform="matrix(-1 0 0 1 44 0) translate(0.63186, -1.04843)" href="#eyes-variant08-9f26915c"/><use transform="translate(7 26) translate(0, 0.93352)" href="#mouth-variant02-9f26915c"/></g><g id="body-default-9f26915c"><path d="M45 0c24.85 0 45 19.4 45 43.33V130H0V43.33C0 19.4 20.15 0 45 0" fill="#f88c49"/><use transform="translate(24 24) translate(-1.60292, 4.73172) rotate(-0.45, 22, 20)" href="#head-default-9f26915c"/></g><clipPath id="clip-9f26915c"><rect width="100" height="100" rx="0" ry="0"/></clipPath></defs><g clip-path="url(#clip-9f26915c)"><rect width="100" height="100" fill="#f1f4dc"/><use transform="translate(5 10) translate(3.10428, -0.30615) rotate(11.9673, 45, 65)" href="#body-default-9f26915c"/></g></svg>